<svg xmlns="http://www.w3.org/2000/svg" xmlns:xlink="http://www.w3.org/1999/xlink" width="160" height="160" viewBox="0 0 160 160"><defs><style>.a{fill:#fff;}.b{clip-path:url(#a);}.c{fill:#b1bdc6;}.d{fill:#f1f7fc;}.e{fill:#c5d2db;}.f{fill:none;stroke:#c5d2db;stroke-miterlimit:10;stroke-width:2px;}.g{fill:#e6eef4;}.h{fill:#b3bec6;}.i,.k{fill:#96a8b9;}.j{fill:#b3bdc4;}.k{fill-rule:evenodd;}</style><clipPath id="a"><circle class="a" cx="80" cy="80" r="80" transform="translate(40 184)"/></clipPath></defs><g class="b" transform="translate(-40 -184)"><g transform="translate(-1069.645 -1822.78)"><path class="c" d="M1203.585,2031.233S1196.608,2026,1184.4,2026s-15.7,3.489-15.7,3.489-15.7-5.233-15.7,8.721a152.567,152.567,0,0,0,1.744,23.881v37.223a12.192,12.192,0,0,0,12.156,12.156h33.25a12.192,12.192,0,0,0,12.156-12.156v-30.579c5.233-13.082,0-20.06,0-28.781S1203.585,2031.233,1203.585,2031.233Z" transform="translate(6.645)"/><path class="d" d="M1156,2041.158v31.4s6.977,12.21,15.7,0v-1.744h6.977s3.489,6.977,6.977,0h8.722v1.744s5.233,10.466,12.21,1.744v-33.142s-4.361-6.105-10.466,0S1162.977,2048.135,1156,2041.158Z" transform="translate(8.878 9.263)"/><rect class="e" width="19.187" height="8.722" rx="0.892" transform="translate(1170.111 2064.375)"/><rect class="e" width="19.187" height="8.722" rx="0.892" transform="translate(1192.787 2064.375)"/><path class="f" d="M1182.571,2050.5h0Z" transform="translate(16.321 18.236)"/><path class="g" d="M1170.744,2051.019,1169,2061.452s3.489,6.977,6.977,0l-1.744-10.433Z" transform="translate(18.554 18.622)"/><rect class="d" width="28.402" height="6.977" transform="translate(1175.097 2111.472)"/><rect class="d" width="41.864" height="19.187" transform="translate(1168.367 2118.448)"/><path class="h" d="M1193.72,2080s13.956,3.489,10.468,47.1S1185,2172.449,1185,2172.449Z" transform="translate(40.463 40.193)"/><path class="h" d="M1154.412,2080s-13.243,3.489-9.754,47.1,19.188,45.352,19.188,45.352Z" transform="translate(-10 40.193)"/><path class="e" d="M1227.268,2079h-22.994a12.629,12.629,0,0,1,.288,2.616c0,8.188-7.809,14.827-17.443,14.827s-17.443-6.639-17.443-14.827a12.746,12.746,0,0,1,.288-2.616H1146.97a9.97,9.97,0,0,0-9.97,9.971l6.977,77.74a9.97,9.97,0,0,0,9.97,9.971h66.343a9.971,9.971,0,0,0,9.971-9.971l6.977-77.74A9.97,9.97,0,0,0,1227.268,2079Z" transform="translate(2.179 39.449)"/><path class="a" d="M1178.466,2062.789a5.235,5.235,0,0,1-10.466,0" transform="translate(17.81 27.383)"/></g><g transform="translate(111.032 318.702)"><path class="i" d="M85.2,458.384l-1.285,1.885h4.1a7.139,7.139,0,0,1,.236,1.822,7.085,7.085,0,0,1-11.432,5.591h-2.65a8.96,8.96,0,0,0,15.161-9.3H85.2Z" transform="translate(-72.198 -453.12)"/><path class="j" d="M80.875,333.768a8.96,8.96,0,0,0-8.162,12.674h6.51l5.053-7.413h-2.1l-3.364,4.936v-4.936H77.164v5.528H74.028a7.089,7.089,0,0,1,6.847-8.9,7.051,7.051,0,0,1,4.349,1.49h2.651A8.953,8.953,0,0,0,80.875,333.768Z" transform="translate(-71.907 -333.768)"/><path class="k" d="M83.588,462.909l-1.051,1.541,1.316,1.93h2.1Z" transform="translate(-73.276 -453.702)"/></g></g></svg>